<?xml version="1.0" encoding="UTF-8" standalone="no"?>
<svg
   xmlns:dc="http://purl.org/dc/elements/1.1/"
   xmlns:cc="http://creativecommons.org/ns#"
   xmlns:rdf="http://www.w3.org/1999/02/22-rdf-syntax-ns#"
   xmlns:svg="http://www.w3.org/2000/svg"
   xmlns="http://www.w3.org/2000/svg"
   id="svg1128"
   version="1.1"
   viewBox="0 0 264.58333 264.58334"
   height="1000"
   width="1000">
  <defs
     id="defs1122">
    <clipPath
       clipPathUnits="userSpaceOnUse"
       id="clipPath969">
      <path
         d="M 0,600 H 800 V 0 H 0 Z"
         id="path967" />
    </clipPath>
    <clipPath
       clipPathUnits="userSpaceOnUse"
       id="clipPath977">
      <path
         d="m 374.5,525.5 h 151 v -151 h -151 z"
         id="path975" />
    </clipPath>
    <clipPath
       clipPathUnits="userSpaceOnUse"
       id="clipPath1029">
      <path
         d="m 374.5,525.5 h 151 v -151 h -151 z"
         id="path1027" />
    </clipPath>
    <clipPath
       clipPathUnits="userSpaceOnUse"
       id="clipPath969-2">
      <path
         d="M 0,600 H 800 V 0 H 0 Z"
         id="path967-5" />
    </clipPath>
    <clipPath
       clipPathUnits="userSpaceOnUse"
       id="clipPath977-1">
      <path
         d="m 374.5,525.5 h 151 v -151 h -151 z"
         id="path975-3" />
    </clipPath>
    <clipPath
       clipPathUnits="userSpaceOnUse"
       id="clipPath1029-9">
      <path
         d="m 374.5,525.5 h 151 v -151 h -151 z"
         id="path1027-7" />
    </clipPath>
    <clipPath
       clipPathUnits="userSpaceOnUse"
       id="clipPath969-21">
      <path
         d="M 0,600 H 800 V 0 H 0 Z"
         id="path967-8" />
    </clipPath>
    <clipPath
       clipPathUnits="userSpaceOnUse"
       id="clipPath977-7">
      <path
         d="m 374.5,525.5 h 151 v -151 h -151 z"
         id="path975-1" />
    </clipPath>
    <clipPath
       clipPathUnits="userSpaceOnUse"
       id="clipPath1029-5">
      <path
         d="m 374.5,525.5 h 151 v -151 h -151 z"
         id="path1027-5" />
    </clipPath>
  </defs>
  <metadata
     id="metadata1125">
    <rdf:RDF>
      <cc:Work
         rdf:about="">
        <dc:format>image/svg+xml</dc:format>
        <dc:type
           rdf:resource="http://purl.org/dc/dcmitype/StillImage" />
        <dc:title></dc:title>
      </cc:Work>
    </rdf:RDF>
  </metadata>
  <g
     id="layer1">
    <g
       id="g1037"
       transform="matrix(1.7522075,0,0,-1.7522075,113.55637,99.750865)">
      <path
         d="M 0,0 V 31.429 H 21.385 V -0.087 L 48.571,15.671 59.307,-2.856 32.12,-18.528 59.307,-34.285 48.571,-52.813 21.385,-37.143 V -68.571 H 0 v 31.428 l -27.186,-15.67 -10.736,18.528 27.1,15.757 -27.1,15.672 10.736,18.527 z"
         style="fill:#da2e75;fill-opacity:1;fill-rule:nonzero;stroke:none"
         id="path1039" />
    </g>
  </g>
</svg>
