<?xml version="1.0" encoding="UTF-8" standalone="no"?>
<svg
   xmlns:dc="http://purl.org/dc/elements/1.1/"
   xmlns:cc="http://creativecommons.org/ns#"
   xmlns:rdf="http://www.w3.org/1999/02/22-rdf-syntax-ns#"
   xmlns:svg="http://www.w3.org/2000/svg"
   xmlns="http://www.w3.org/2000/svg"
   xmlns:xlink="http://www.w3.org/1999/xlink"
   xmlns:sodipodi="http://sodipodi.sourceforge.net/DTD/sodipodi-0.dtd"
   xmlns:inkscape="http://www.inkscape.org/namespaces/inkscape"
   inkscape:version="1.0 (4035a4f, 2020-05-01)"
   sodipodi:docname="drawing.svg"
   id="svg901"
   version="1.1"
   viewBox="0 0 338.66667 190.5"
   height="720"
   width="1280">
  <defs
     id="defs895">
    <linearGradient
       id="linearGradient951"
       inkscape:collect="always">
      <stop
         id="stop947"
         offset="0"
         style="stop-color:#000000;stop-opacity:1;" />
      <stop
         id="stop949"
         offset="1"
         style="stop-color:#000000;stop-opacity:0;" />
    </linearGradient>
    <clipPath
       clipPathUnits="userSpaceOnUse"
       id="clipPath919">
      <path
         d="M 0,800 H 1200 V 0 H 0 Z"
         id="path917" />
    </clipPath>
    <linearGradient
       gradientUnits="userSpaceOnUse"
       y2="242.347"
       x2="-0.041000001"
       y1="-39.875999"
       x1="-0.011"
       id="linearGradient953"
       xlink:href="#linearGradient951"
       inkscape:collect="always" />
  </defs>
  <sodipodi:namedview
     units="px"
     inkscape:window-maximized="1"
     inkscape:window-y="23"
     inkscape:window-x="0"
     inkscape:window-height="790"
     inkscape:window-width="1440"
     showgrid="false"
     inkscape:document-rotation="0"
     inkscape:current-layer="g915"
     inkscape:document-units="px"
     inkscape:cy="2557.7127"
     inkscape:cx="1174.9699"
     inkscape:zoom="0.10182945"
     inkscape:pageshadow="2"
     inkscape:pageopacity="0.0"
     borderopacity="1.0"
     bordercolor="#666666"
     pagecolor="#ffffff"
     id="base" />
  <metadata
     id="metadata898">
    <rdf:RDF>
      <cc:Work
         rdf:about="">
        <dc:format>image/svg+xml</dc:format>
        <dc:type
           rdf:resource="http://purl.org/dc/dcmitype/StillImage" />
        <dc:title></dc:title>
      </cc:Work>
    </rdf:RDF>
  </metadata>
  <g
     id="layer1"
     inkscape:groupmode="layer"
     inkscape:label="Layer 1">
    <g
       id="g915"
       clip-path="url(#clipPath919)"
       transform="matrix(0.35277777,0,0,-0.35277777,-100.57698,281.39068)">
      <g
         inkscape:export-ydpi="101.64698"
         inkscape:export-xdpi="101.64698"
         id="g921"
         transform="matrix(0.77155887,0,0,0.77155887,765.10516,782.64289)">
        <path
           d="m 0,0 c -148.889,-141.523 -297.752,-283.053 -297.546,-424.292 0.112,-77.879 66.828,-140.979 149.015,-140.979 0.091,0 0.182,0 0.272,0 68.091,0.139 105.033,29.663 139.267,88.675 C -43.22,-599.3 -80.168,-660.741 -148.259,-661 h 296.478 c -68.117,0.259 -105.06,61.7 -139.247,184.404 34.187,-59.006 71.123,-88.536 139.247,-88.675 0.095,0 0.177,0 0.272,0 82.147,0 148.929,63.105 149.042,140.986 C 297.705,-283.047 148.843,-141.523 0,0 M -0.02,-548.064 C 12.697,-583.387 25.837,-610.039 40.641,-631 h -81.336 c 14.806,20.961 27.949,47.609 40.675,82.936 m 0.017,506.656 c 65.784,-62.69 131.815,-126.952 181.119,-189.45 28.544,-36.183 49.374,-68.893 63.683,-99.999 15.334,-33.338 22.77,-63.886 22.734,-93.384 -0.089,-61.222 -53.491,-111.03 -119.042,-111.03 h -0.211 c -27.439,0.056 -48.315,5.514 -65.696,17.175 -16.625,11.155 -31.768,29.12 -47.654,56.54 l -5.792,9.996 -29.126,50.27 -29.16,-50.266 -5.793,-9.986 c -15.912,-27.428 -31.069,-45.398 -47.7,-56.555 -17.384,-11.661 -38.254,-17.118 -65.669,-17.174 h -0.221 c -65.536,0 -118.927,49.804 -119.015,111.023 -0.043,29.508 7.389,60.06 22.723,93.4 14.308,31.112 35.141,63.827 63.692,100.014 49.324,62.519 115.345,126.757 181.128,189.426"
           style="fill:#000000;fill-opacity:1;fill-rule:nonzero;stroke:none"
           id="path923" />
      </g>
      <g
         inkscape:export-ydpi="101.64698"
         inkscape:export-xdpi="101.64698"
         id="g925"
         transform="matrix(0.77155887,0,0,0.77155887,765.13182,539.1727)">
        <path
           sodipodi:nodetypes="ccccccccccsccsccccccc"
           d="m 148.338,-176.714 c -303.20513,379.27539 -151.6025643,189.637697 0,0 z m 0.119,-20 h -0.139 c -22.338,0.045 -38.234,3.886 -51.562,12.455 -14.255,9.163 -27.588,24.983 -41.96,49.786 l -54.807,94.597 -54.859,-94.567 c -14.395,-24.813 -27.744,-40.642 -42.01,-49.814 -13.335,-8.571 -29.214,-12.412 -51.488,-12.457 h -0.198 c -52.873,0 -95.945,39.502 -96.015,88.056 -0.038,26.109 6.706,53.506 20.62,83.756 13.538,29.439 33.443,60.637 60.852,95.378 41.14,52.145 92.172,103.759 156.139,165.214 l 6.929,6.657 6.929,-6.658 C 70.874,174.198 121.912,122.567 163.024,70.453 c 27.402,-34.736 47.305,-65.93 60.845,-95.366 13.913,-30.248 20.661,-57.639 20.63,-83.739 -0.071,-48.554 -43.155,-88.056 -96.042,-88.062"
           style="fill:url(#linearGradient953);fill-opacity:1;fill-rule:nonzero;stroke:none"
           id="path927" />
      </g>
    </g>
  </g>
</svg>
